<mxfile host="app.diagrams.net" modified="2024-05-14T08:57:48.656Z" agent="Mozilla/5.0 (Macintosh; Intel Mac OS X 10_15_7) AppleWebKit/537.36 (KHTML, like Gecko) Chrome/124.0.0.0 Safari/537.36" version="24.4.0" etag="V1Bn--O9-q_f6o1eSn7t" type="github">
  <diagram name="Page-1" id="UCJqeF_oZ2zSoSlZInSy">
    <mxGraphModel>
      <root>
        <mxCell id="0" />
        <mxCell id="1" parent="0" />
      </root>
    </mxGraphModel>
  </diagram>
</mxfile>
